{"asset":{"version":"2.0","generator":"Blockbench 5.1.3 glTF exporter"},"scenes":[{"nodes":[0,1,2,3,4,5,6],"name":"blockbench_export"}],"scene":0,"nodes":[{"rotation":[6.123233995736766e-17,1,6.123233995736766e-17,3.749399456654644e-33],"translation":[5.45060380571905e-17,0.75,4.062825024937604e-17],"name":"cube","mesh":0},{"rotation":[6.123233995736766e-17,1,6.123233995736766e-17,3.749399456654644e-33],"translation":[0,0.46875,0],"name":"cube","mesh":1},{"rotation":[6.123233995736766e-17,1,6.123233995736766e-17,3.749399456654644e-33],"translation":[0,0.46875,0],"name":"cube","mesh":2},{"rotation":[0.5,0.4999999999999999,-0.5,0.5000000000000001],"translation":[-0.4375,0.1875,-0.375],"name":"tire","mesh":3},{"rotation":[0.5,0.4999999999999999,-0.5,0.5000000000000001],"translation":[-0.4375000000000001,0.18750000000000006,0.37499999999999983],"name":"tire","mesh":4},{"rotation":[0.5,0.4999999999999999,-0.5,0.5000000000000001],"translation":[0.43750000000000006,0.1874999999999999,-0.37499999999999983],"name":"tire","mesh":5},{"rotation":[0.5,0.4999999999999999,-0.5,0.5000000000000001],"translation":[0.43749999999999994,0.1875000000000001,0.37500000000000017],"name":"tire","mesh":6}],"bufferViews":[{"buffer":0,"byteOffset":0,"byteLength":288,"target":34962,"byteStride":12},{"buffer":0,"byteOffset":288,"byteLength":288,"target":34962,"byteStride":12},{"buffer":0,"byteOffset":576,"byteLength":192,"target":34962,"byteStride":8},{"buffer":0,"byteOffset":768,"byteLength":72,"target":34963},{"buffer":0,"byteOffset":840,"byteLength":288,"target":34962,"byteStride":12},{"buffer":0,"byteOffset":1128,"byteLength":288,"target":34962,"byteStride":12},{"buffer":0,"byteOffset":1416,"byteLength":192,"target":34962,"byteStride":8},{"buffer":0,"byteOffset":1608,"byteLength":72,"target":34963},{"buffer":0,"byteOffset":1680,"byteLength":288,"target":34962,"byteStride":12},{"buffer":0,"byteOffset":1968,"byteLength":288,"target":34962,"byteStride":12},{"buffer":0,"byteOffset":2256,"byteLength":192,"target":34962,"byteStride":8},{"buffer":0,"byteOffset":2448,"byteLength":72,"target":34963},{"buffer":0,"byteOffset":2520,"byteLength":960,"target":34962,"byteStride":12},{"buffer":0,"byteOffset":3480,"byteLength":960,"target":34962,"byteStride":12},{"buffer":0,"byteOffset":4440,"byteLength":640,"target":34962,"byteStride":8},{"buffer":0,"byteOffset":5080,"byteLength":192,"target":34963},{"buffer":0,"byteOffset":5272,"byteLength":960,"target":34962,"byteStride":12},{"buffer":0,"byteOffset":6232,"byteLength":960,"target":34962,"byteStride":12},{"buffer":0,"byteOffset":7192,"byteLength":640,"target":34962,"byteStride":8},{"buffer":0,"byteOffset":7832,"byteLength":192,"target":34963},{"buffer":0,"byteOffset":8024,"byteLength":960,"target":34962,"byteStride":12},{"buffer":0,"byteOffset":8984,"byteLength":960,"target":34962,"byteStride":12},{"buffer":0,"byteOffset":9944,"byteLength":640,"target":34962,"byteStride":8},{"buffer":0,"byteOffset":10584,"byteLength":192,"target":34963},{"buffer":0,"byteOffset":10776,"byteLength":960,"target":34962,"byteStride":12},{"buffer":0,"byteOffset":11736,"byteLength":960,"target":34962,"byteStride":12},{"buffer":0,"byteOffset":12696,"byteLength":640,"target":34962,"byteStride":8},{"buffer":0,"byteOffset":13336,"byteLength":192,"target":34963}],"buffers":[{"byteLength":13528,"uri":"data:application/octet-stream;base64,"}],"accessors":[{"bufferView":0,"componentType":5126,"count":24,"max":[0.25,0.0625,0.125],"min":[-0.25,-0.0625,-0.125],"type":"VEC3"},{"bufferView":1,"componentType":5126,"count":24,"max":[1,1,1],"min":[-1,-1,-1],"type":"VEC3"},{"bufferView":2,"componentType":5126,"count":24,"max":[0.765625,0.703125],"min":[0.109375,0.484375],"type":"VEC2"},{"bufferView":3,"componentType":5123,"count":36,"max":[23],"min":[0],"type":"SCALAR"},{"bufferView":4,"componentType":5126,"count":24,"max":[0.375,0.21875,0.375],"min":[-0.375,-0.03125,-0.375],"type":"VEC3"},{"bufferView":5,"componentType":5126,"count":24,"max":[1,1,1],"min":[-1,-1,-1],"type":"VEC3"},{"bufferView":6,"componentType":5126,"count":24,"max":[0.59375,0.59375],"min":[0,0.3125],"type":"VEC2"},{"bufferView":7,"componentType":5123,"count":36,"max":[23],"min":[0],"type":"SCALAR"},{"bufferView":8,"componentType":5126,"count":24,"max":[0.375,-0.03125,0.625],"min":[-0.375,-0.28125,-0.625],"type":"VEC3"},{"bufferView":9,"componentType":5126,"count":24,"max":[1,1,1],"min":[-1,-1,-1],"type":"VEC3"},{"bufferView":10,"componentType":5126,"count":24,"max":[0.71875,0.3125],"min":[0,0],"type":"VEC2"},{"bufferView":11,"componentType":5123,"count":36,"max":[23],"min":[0],"type":"SCALAR"},{"bufferView":12,"componentType":5126,"count":80,"max":[0.1875,0.0625,0.1875],"min":[-0.1875,-0.0625,-0.1875],"type":"VEC3"},{"bufferView":13,"componentType":5126,"count":80,"max":[1,1,1],"min":[-1,-1,-1],"type":"VEC3"},{"bufferView":14,"componentType":5126,"count":80,"max":[0.765625,0.734375],"min":[0.609375,0],"type":"VEC2"},{"bufferView":15,"componentType":5123,"count":96,"max":[79],"min":[0],"type":"SCALAR"},{"bufferView":16,"componentType":5126,"count":80,"max":[0.1875,0.0625,0.1875],"min":[-0.1875,-0.0625,-0.1875],"type":"VEC3"},{"bufferView":17,"componentType":5126,"count":80,"max":[1,1,1],"min":[-1,-1,-1],"type":"VEC3"},{"bufferView":18,"componentType":5126,"count":80,"max":[0.75,0.75],"min":[0,0.15625],"type":"VEC2"},{"bufferView":19,"componentType":5123,"count":96,"max":[79],"min":[0],"type":"SCALAR"},{"bufferView":20,"componentType":5126,"count":80,"max":[0.1875,0.0625,0.1875],"min":[-0.1875,-0.0625,-0.1875],"type":"VEC3"},{"bufferView":21,"componentType":5126,"count":80,"max":[1,1,1],"min":[-1,-1,-1],"type":"VEC3"},{"bufferView":22,"componentType":5126,"count":80,"max":[0.65625,0.734375],"min":[0.296875,0.546875],"type":"VEC2"},{"bufferView":23,"componentType":5123,"count":96,"max":[79],"min":[0],"type":"SCALAR"},{"bufferView":24,"componentType":5126,"count":80,"max":[0.1875,0.0625,0.1875],"min":[-0.1875,-0.0625,-0.1875],"type":"VEC3"},{"bufferView":25,"componentType":5126,"count":80,"max":[1,1,1],"min":[-1,-1,-1],"type":"VEC3"},{"bufferView":26,"componentType":5126,"count":80,"max":[0.71875,0.734375],"min":[0.203125,0.53125],"type":"VEC2"},{"bufferView":27,"componentType":5123,"count":96,"max":[79],"min":[0],"type":"SCALAR"}],"materials":[{"pbrMetallicRoughness":{"metallicFactor":0,"roughnessFactor":1,"baseColorTexture":{"index":0}},"alphaMode":"MASK","alphaCutoff":0.05,"doubleSided":true}],"textures":[{"sampler":0,"source":0,"name":"texture"}],"samplers":[{"magFilter":9728,"minFilter":9728,"wrapS":33071,"wrapT":33071}],"images":[{"mimeType":"image/png","uri":"data:image/png;base64,"}],"meshes":[{"primitives":[{"mode":4,"attributes":{"POSITION":0,"NORMAL":1,"TEXCOORD_0":2},"indices":3,"material":0}]},{"primitives":[{"mode":4,"attributes":{"POSITION":4,"NORMAL":5,"TEXCOORD_0":6},"indices":7,"material":0}]},{"primitives":[{"mode":4,"attributes":{"POSITION":8,"NORMAL":9,"TEXCOORD_0":10},"indices":11,"material":0}]},{"primitives":[{"mode":4,"attributes":{"POSITION":12,"NORMAL":13,"TEXCOORD_0":14},"indices":15,"material":0}]},{"primitives":[{"mode":4,"attributes":{"POSITION":16,"NORMAL":17,"TEXCOORD_0":18},"indices":19,"material":0}]},{"primitives":[{"mode":4,"attributes":{"POSITION":20,"NORMAL":21,"TEXCOORD_0":22},"indices":23,"material":0}]},{"primitives":[{"mode":4,"attributes":{"POSITION":24,"NORMAL":25,"TEXCOORD_0":26},"indices":27,"material":0}]}]}